M48
; DRILL file KiCad 10.0.1 date 2026-06-07T22:21:57
; FORMAT={-:-/ absolute / inch / decimal}
; #@! TF.CreationDate,2026-06-07T22:21:57-03:00
; #@! TF.GenerationSoftware,Kicad,Pcbnew,10.0.1
; #@! TF.FileFunction,Plated,1,2,PTH
FMAT,2
INCH
; #@! TA.AperFunction,Plated,PTH,ViaDrill
T1C0.0157
; #@! TA.AperFunction,Plated,PTH,ComponentDrill
T2C0.0315
; #@! TA.AperFunction,Plated,PTH,ComponentDrill
T3C0.0394
; #@! TA.AperFunction,Plated,PTH,ComponentDrill
T4C0.0433
; #@! TA.AperFunction,Plated,PTH,ComponentDrill
T5C0.0472
; #@! TA.AperFunction,Plated,PTH,ComponentDrill
T6C0.0512
; #@! TA.AperFunction,Plated,PTH,ComponentDrill
T7C0.0709
; #@! TA.AperFunction,Plated,PTH,ComponentDrill
T8C0.1260
%
G90
G05
T1
X1.3Y-2.1
X1.3Y-2.2
X1.3Y-2.3
X1.3Y-2.4
X1.3Y-2.5
X1.3Y-2.6
X1.3Y-2.7
X1.3Y-2.8
X1.3Y-2.9
X1.3Y-3.0
X1.3Y-3.1
X1.3Y-3.2
X1.3Y-3.3
X1.3Y-3.4
X1.3Y-3.5
X1.3Y-3.6
X1.3Y-3.7
X1.3Y-3.8
X1.3Y-3.9
X1.3Y-4.0
X1.3Y-4.1
X1.3Y-4.2
X1.3Y-4.3
X1.3Y-4.4
X1.3Y-4.5
X1.3Y-4.6
X1.3Y-4.7
X1.3Y-4.8
X1.3Y-4.9
X1.3Y-5.0
X1.35Y-2.05
X1.4Y-2.5
X1.4Y-2.6
X1.4Y-2.7
X1.4Y-2.8
X1.4Y-2.9
X1.4Y-3.0
X1.4Y-3.1
X1.4Y-3.2
X1.4Y-3.3
X1.4Y-3.4
X1.4Y-3.5
X1.4Y-3.6
X1.4Y-3.7
X1.4Y-3.8
X1.4Y-3.9
X1.4Y-4.6
X1.4Y-4.7
X1.4Y-5.075
X1.45Y-2.05
X1.5Y-2.4
X1.5Y-3.9
X1.5Y-5.075
X1.55Y-2.05
X1.6Y-3.9
X1.6Y-4.6
X1.6Y-4.7
X1.6Y-5.075
X1.65Y-2.05
X1.7Y-2.2
X1.7Y-2.3
X1.7Y-3.9
X1.7Y-5.075
X1.725Y-4.85
X1.75Y-2.05
X1.7925Y-2.8181
X1.7925Y-4.5681
X1.8Y-2.6
X1.8Y-2.7
X1.8Y-3.3
X1.8Y-3.4
X1.8Y-3.8
X1.8Y-3.9
X1.8Y-4.0
X1.8Y-4.1
X1.8Y-4.2
X1.8Y-4.3
X1.8Y-4.4
X1.8Y-4.925
X1.8Y-5.075
X1.8519Y-2.1981
X1.9Y-4.2
X1.9Y-4.3
X1.9Y-4.4
X1.9Y-5.0
X1.9Y-5.075
X1.9425Y-4.8481
X1.9925Y-4.5681
X1.9925Y-4.7681
X2.0Y-2.06
X2.0Y-2.2
X2.0Y-2.3
X2.0Y-5.075
X2.0425Y-4.5681
X2.0525Y-2.3381
X2.075Y-5.075
X2.0925Y-4.5781
X2.1Y-4.0
X2.1Y-4.1
X2.1Y-4.2
X2.1Y-4.4
X2.1225Y-2.8281
X2.1236Y-3.1902
X2.1398Y-3.065
X2.1425Y-3.7181
X2.1425Y-4.7181
X2.1525Y-2.4181
X2.1525Y-3.3481
X2.1575Y-2.1981
X2.16Y-2.66
X2.1725Y-4.8676
X2.175Y-5.075
X2.2Y-3.9
X2.2Y-4.0
X2.2Y-4.1
X2.2Y-4.2
X2.2Y-4.4
X2.2385Y-4.6221
X2.2425Y-2.3681
X2.2425Y-2.5681
X2.2425Y-2.7681
X2.2425Y-2.9681
X2.2425Y-3.1486
X2.2425Y-3.3681
X2.2425Y-3.5681
X2.2425Y-3.7681
X2.25Y-2.25
X2.2635Y-4.8391
X2.2725Y-4.5181
X2.275Y-5.075
X2.3Y-3.9
X2.3Y-4.0
X2.3Y-4.1
X2.3025Y-4.7081
X2.32Y-4.7506
X2.3248Y-3.3815
X2.3325Y-4.1681
X2.3425Y-2.2181
X2.3425Y-2.4181
X2.3425Y-2.8233
X2.3425Y-3.3129
X2.3425Y-3.7129
X2.3425Y-3.9181
X2.35Y-4.85
X2.3925Y-4.3731
X2.3925Y-4.4431
X2.4Y-5.0
X2.4Y-5.075
X2.45Y-4.85
X2.4625Y-4.5181
X2.4625Y-4.9181
X2.5Y-4.6
X2.5Y-5.0
X2.5Y-5.075
X2.5425Y-3.1181
X2.5425Y-3.2181
X2.5425Y-3.4181
X2.5675Y-3.0681
X2.5675Y-4.2281
X2.6Y-2.4
X2.6Y-5.0
X2.6Y-5.075
X2.6125Y-4.8081
X2.625Y-4.6
X2.6425Y-2.0581
X2.6425Y-2.2181
X2.6425Y-3.1681
X2.6425Y-3.4481
X2.6425Y-3.8681
X2.6425Y-4.7581
X2.65Y-4.25
X2.6675Y-2.7681
X2.6675Y-4.8431
X2.6925Y-4.7381
X2.7Y-2.05
X2.7Y-3.2
X2.7Y-3.3
X2.7Y-5.0
X2.7Y-5.075
X2.7125Y-4.4881
X2.7175Y-4.9181
X2.72Y-4.08
X2.7425Y-2.3181
X2.7425Y-2.8181
X2.7425Y-2.9181
X2.7425Y-3.3181
X2.7425Y-3.8181
X2.75Y-4.25
X2.8Y-2.05
X2.8Y-5.0
X2.8Y-5.075
X2.8275Y-4.4731
X2.85Y-4.16
X2.8775Y-4.2631
X2.9Y-2.05
X2.9175Y-4.7681
X2.9175Y-4.8681
X2.925Y-5.075
X2.93Y-4.5681
X2.97Y-4.22
X3.0Y-2.05
X3.02Y-4.22
X3.0315Y-5.0354
X3.07Y-4.22
X3.1Y-2.05
X3.1Y-2.3
X3.1Y-2.4
X3.1Y-3.2
X3.1Y-3.3
X3.1Y-3.4
X3.1Y-3.5
X3.1Y-3.6
X3.1Y-3.7
X3.1Y-4.95
X3.1Y-5.075
X3.2Y-2.7
X3.2Y-2.8
X3.2Y-2.9
X3.2Y-3.0
X3.2Y-3.6
X3.2Y-4.95
X3.2Y-5.075
X3.232Y-3.4681
X3.2525Y-3.1681
X3.3Y-2.05
X3.3Y-2.4
X3.3Y-2.6
X3.3Y-2.7
X3.3Y-3.0
X3.3Y-4.95
X3.3Y-5.075
X3.34Y-3.84
X3.34Y-4.4833
X3.35Y-3.25
X3.35Y-3.35
X3.35Y-3.55
X3.3775Y-4.6681
X3.3875Y-4.8681
X3.39Y-4.4833
X3.4Y-2.4
X3.4Y-2.6
X3.4Y-4.8
X3.4Y-4.95
X3.4Y-5.075
X3.4075Y-4.3181
X3.44Y-4.4833
X3.4925Y-2.6781
X3.5Y-2.05
X3.5Y-2.2
X3.5Y-2.3
X3.5Y-2.4
X3.5Y-2.6
X3.5Y-2.8181
X3.5Y-2.9
X3.5Y-3.0
X3.5Y-3.1
X3.5Y-3.3
X3.5Y-3.4
X3.5Y-5.075
X3.5025Y-4.3626
X3.57Y-4.64
X3.58Y-4.82
X3.59Y-4.52
X3.6Y-2.05
X3.6Y-5.075
X3.6125Y-4.3631
X3.6169Y-4.1134
X3.6193Y-4.2146
X3.6625Y-4.2831
X3.6681Y-4.3591
X3.7Y-2.05
X3.7Y-4.16
X3.7Y-5.075
X3.7925Y-2.8781
X3.7925Y-2.9781
X3.7925Y-3.0486
X3.7925Y-4.7181
X3.8Y-2.05
X3.8Y-2.45
X3.8Y-3.9
X3.8Y-4.0
X3.8Y-4.1
X3.8Y-4.2
X3.8Y-4.3
X3.8Y-5.075
X3.8025Y-2.3181
X3.8025Y-3.3181
X3.8025Y-3.4681
X3.8025Y-3.8181
X3.83Y-4.37
X3.8325Y-3.1681
X3.85Y-2.6
X3.85Y-2.7
X3.85Y-2.8
X3.86Y-4.4005
X3.9Y-2.05
X3.9Y-3.7
X3.9Y-4.3
X3.9Y-4.8
X3.9Y-5.075
X3.95Y-2.55
X3.95Y-2.95
X3.97Y-4.61
X3.985Y-4.135
X3.99Y-3.78
X3.9925Y-4.9181
X4.0Y-2.05
X4.0Y-3.05
X4.0Y-3.15
X4.0Y-3.25
X4.0Y-3.35
X4.0Y-3.45
X4.0Y-4.85
X4.0Y-5.075
X4.05Y-4.0
X4.06Y-3.424
X4.1Y-2.05
X4.1Y-2.25
X4.1Y-4.2
X4.1Y-4.8
X4.1Y-5.075
X4.15Y-2.85
X4.15Y-3.05
X4.15Y-3.2
X4.15Y-3.35
X4.15Y-3.85
X4.1925Y-4.9181
X4.2Y-2.05
X4.2Y-3.7
X4.2Y-4.85
X4.2Y-5.075
X4.2094Y-4.6429
X4.2126Y-4.7244
X4.2232Y-4.5004
X4.25Y-4.4
X4.3Y-2.05
X4.3Y-2.15
X4.3178Y-3.915
X4.35Y-3.755
X4.35Y-4.11
X4.385Y-4.025
X4.4Y-2.05
X4.4Y-2.15
X4.42Y-3.35
X4.45Y-3.85
X4.45Y-4.2
X4.458Y-2.55
X4.458Y-2.65
X4.458Y-2.75
X4.49Y-3.18
X4.49Y-3.26
X4.5Y-2.05
X4.5Y-2.4835
X4.51Y-4.025
X4.5175Y-2.1581
X4.5175Y-2.3931
X4.5191Y-4.9431
X4.5375Y-3.5181
X4.5441Y-4.6681
X4.5675Y-2.1581
X4.5675Y-2.3931
X4.5691Y-4.5431
X4.6Y-2.05
X4.6Y-4.7
X4.6175Y-2.1581
X4.6175Y-2.3931
X4.6191Y-4.9431
X4.65Y-4.5
X4.6675Y-2.1581
X4.6675Y-2.3931
X4.7Y-2.05
X4.7Y-3.7
X4.7Y-3.85
X4.7Y-4.7
X4.7107Y-3.4307
X4.7175Y-2.1581
X4.7175Y-2.3931
X4.7175Y-3.2181
X4.7175Y-3.3181
X4.7175Y-3.5181
X4.7295Y-2.5476
X4.7295Y-2.5984
X4.745Y-3.915
X4.75Y-3.1
X4.75Y-4.5
X4.7675Y-2.1581
X4.7675Y-2.3931
X4.78Y-2.82
X4.795Y-3.76
X4.8Y-2.05
X4.8Y-2.95
X4.8Y-4.105
X4.8Y-4.95
X4.8175Y-2.1581
X4.8175Y-2.3931
X4.8175Y-3.2181
X4.8175Y-3.3181
X4.8175Y-3.4181
X4.85Y-3.7
X4.8675Y-2.1581
X4.8675Y-2.3931
X4.9Y-2.05
X4.9Y-3.9
X4.9Y-4.0
X4.9Y-4.44
X4.909Y-2.421
X4.9175Y-2.1681
X4.9175Y-2.2181
X4.9175Y-2.2681
X4.9175Y-2.3431
X4.9213Y-2.5
X4.9213Y-2.5591
X4.9675Y-2.3431
X4.9803Y-2.5
X4.9803Y-2.5591
X4.9975Y-3.5359
X5.0Y-2.05
X5.0Y-3.6
X5.025Y-4.275
X5.04Y-2.336
X5.05Y-4.95
X5.06Y-3.26
X5.06Y-3.39
X5.0689Y-2.6378
X5.097Y-2.32
X5.1Y-2.05
X5.1Y-3.6
X5.1Y-4.5
X5.1425Y-2.2126
X5.1429Y-2.1697
X5.15Y-4.25
X5.15Y-4.95
X5.16Y-2.44
X5.2Y-2.05
X5.2Y-3.6
X5.2Y-3.9
X5.2Y-4.0
X5.2Y-4.5
X5.2191Y-4.5681
X5.2191Y-4.7181
X5.225Y-4.175
X5.25Y-4.65
X5.25Y-4.95
X5.2854Y-2.7362
X5.3Y-3.6
X5.3Y-4.0
X5.3Y-4.1
X5.3169Y-4.852
X5.3346Y-2.49
X5.3425Y-2.39
X5.36Y-2.44
X5.4Y-3.6
X5.4Y-3.775
X5.4Y-4.025
X5.4331Y-2.1063
X5.45Y-3.15
X5.45Y-3.25
X5.45Y-3.35
X5.45Y-3.55
X5.48Y-3.0
X5.5Y-4.7
X5.5Y-5.0
X5.5217Y-2.313
X5.525Y-3.875
X5.55Y-3.7
X5.575Y-3.1
X5.575Y-4.3
X5.6Y-4.2
X5.6Y-4.35
X5.6Y-4.5
X5.625Y-2.825
X5.65Y-3.025
X5.65Y-4.95
X5.675Y-4.125
X5.7Y-4.4
X5.725Y-2.025
X5.75Y-4.5
X5.8Y-2.7
X5.8Y-2.875
X5.8Y-3.2
X5.8Y-3.4
X5.9Y-3.425
X5.9Y-4.5
X5.9Y-4.625
X5.95Y-2.4
X5.95Y-2.55
X5.95Y-2.7
X6.0Y-2.1
X6.0Y-2.875
X6.0Y-4.9
X6.1Y-2.4
X6.1Y-2.55
X6.1Y-2.7
X6.15Y-4.95
X6.2Y-2.1
X6.2Y-3.2
X6.225Y-3.35
X6.225Y-4.475
X6.25Y-2.55
X6.25Y-3.5
X6.25Y-3.625
X6.25Y-3.725
X6.25Y-3.85
X6.25Y-3.95
X6.3Y-2.4
X6.3Y-3.4
X6.4Y-3.2
X6.4Y-4.775
X6.425Y-2.875
X6.5Y-2.4
X6.5Y-4.4
X6.5Y-5.0
X6.6Y-3.2
X6.6Y-3.4
X6.6Y-3.6
X6.6Y-3.9
X6.6Y-4.1
X6.6Y-4.3
X6.6Y-4.5
X6.6Y-4.7
X6.6Y-4.9
X6.6Y-5.025
X6.625Y-2.875
X6.7Y-2.1
X6.7Y-2.4
X6.7Y-3.9
X6.7Y-4.1
X6.7Y-4.3
X6.7Y-4.5
X6.7Y-4.7
X6.7Y-4.9
X6.75Y-2.775
X6.8Y-3.2
X6.8Y-3.4
X6.8Y-3.6
X6.825Y-2.875
X6.9Y-2.1
X6.9Y-2.4
X6.9Y-3.1
X7.0Y-3.15
X7.0Y-3.3
X7.0Y-4.425
X7.025Y-2.875
X7.025Y-4.05
X7.025Y-4.175
X7.025Y-4.325
X7.1Y-2.1
X7.1Y-2.4
X7.1Y-2.775
X7.1Y-3.3
X7.1Y-4.6
X7.1Y-4.8
X7.15Y-4.45
X7.15Y-4.875
X7.175Y-4.05
X7.175Y-4.175
X7.175Y-4.3
X7.2Y-3.55
X7.2Y-4.75
X7.25Y-2.075
X7.25Y-2.15
X7.25Y-2.225
X7.25Y-2.3
X7.25Y-2.375
X7.25Y-3.3
X7.25Y-4.225
X7.25Y-4.3
X7.25Y-4.375
X7.25Y-4.45
X7.25Y-4.525
X7.3Y-3.9
X7.3Y-4.1
X7.325Y-2.05
X7.325Y-4.2
X7.35Y-3.55
X7.35Y-4.725
X7.35Y-4.825
X7.4Y-2.05
X7.4Y-3.0
X7.4Y-4.2
X7.4Y-4.9
X7.425Y-3.1
X7.4295Y-2.8764
X7.45Y-3.95
X7.45Y-4.725
X7.45Y-4.825
X7.475Y-2.05
X7.475Y-4.2
X7.5Y-3.55
X7.5Y-4.1
X7.549Y-4.8235
X7.55Y-2.05
X7.55Y-4.2
X7.55Y-4.725
X7.5732Y-2.8232
X7.6Y-3.6
X7.6Y-4.9
X7.625Y-2.05
X7.625Y-4.2
X7.65Y-4.1
X7.65Y-4.725
X7.65Y-4.825
X7.6748Y-2.8256
X7.7Y-2.05
X7.7Y-3.8
X7.7Y-4.2
X7.71Y-2.626
X7.75Y-2.075
X7.75Y-2.15
X7.75Y-2.225
X7.75Y-2.3
X7.75Y-2.375
X7.75Y-3.55
X7.75Y-4.225
X7.75Y-4.3
X7.75Y-4.375
X7.75Y-4.45
X7.75Y-4.525
X7.8Y-3.95
X7.85Y-2.825
X7.85Y-2.95
X7.85Y-3.075
X7.85Y-3.8
X7.85Y-4.4
X7.85Y-4.55
X8.0Y-3.3
X8.0Y-3.75
X8.0Y-4.2
X8.1Y-4.1
X8.1Y-5.0
X8.2Y-2.4
X8.2Y-2.6
X8.2Y-2.8
X8.2Y-3.0
X8.2Y-3.2
X8.2Y-4.0
X8.2Y-4.2
X8.2Y-4.4
X8.2Y-4.6
T2
X7.2016Y-2.9
X7.3Y-2.9
T3
X1.4925Y-2.6681
X1.4925Y-2.7681
X1.4925Y-2.8681
X1.4925Y-2.9681
X1.4925Y-3.0681
X1.4925Y-3.1681
X1.4925Y-3.2681
X1.4925Y-3.3681
X1.4925Y-3.4681
X1.4925Y-3.5681
X1.4925Y-3.6681
X1.4925Y-3.7681
X1.9425Y-2.5181
X1.9425Y-2.6181
X1.9425Y-2.7181
X1.9425Y-2.8181
X1.9425Y-3.0181
X1.9425Y-3.1181
X1.9425Y-3.2181
X1.9425Y-3.3181
X1.9425Y-3.5431
X1.9425Y-3.6431
X1.9425Y-3.7431
X1.9425Y-3.8431
X1.9425Y-3.9431
X1.9425Y-4.0431
X2.0425Y-4.9681
X2.1425Y-4.9681
X2.2425Y-4.9681
X3.1925Y-4.2431
X3.2925Y-4.2431
X3.3925Y-4.2431
X4.0925Y-2.5181
X4.0925Y-2.6181
X4.0925Y-2.7181
X4.2175Y-2.9931
X4.2175Y-3.1431
X4.2175Y-3.2931
X4.3175Y-2.9931
X4.3175Y-3.1431
X4.3175Y-3.2931
X4.352Y-2.618
X4.352Y-2.718
X4.56Y-2.7181
X4.66Y-2.7181
X4.9Y-2.7181
X5.0Y-2.7181
X5.2175Y-2.9931
X5.2175Y-3.1431
X5.2175Y-3.2931
X5.3175Y-2.9931
X5.3175Y-3.1431
X5.3175Y-3.2931
X5.3921Y-2.7181
X5.422Y-4.4488
X5.422Y-4.5488
X5.4921Y-2.7181
X7.875Y-3.65
X7.975Y-3.65
T4
X5.65Y-4.85
X5.75Y-4.85
X5.85Y-4.85
X6.125Y-4.85
X6.225Y-4.85
X6.325Y-4.85
T5
X5.95Y-3.2423
X5.95Y-4.325
X6.85Y-4.425
X6.85Y-4.7203
T6
X1.4925Y-4.0681
X1.4925Y-4.2681
X1.4925Y-4.4681
X7.1638Y-3.4537
X7.1638Y-3.9341
X7.4Y-3.375
X7.6362Y-3.4537
X7.6362Y-3.9341
X7.975Y-2.5
X7.975Y-2.7
X7.975Y-2.9
X7.975Y-3.1
X7.975Y-3.9
X7.975Y-4.1
X7.975Y-4.3
X7.975Y-4.5
T7
X6.4185Y-3.5
X6.54Y-2.1435
X6.54Y-2.675
X6.95Y-3.5
T8
X1.5354Y-2.2441
X1.5354Y-4.8425
X8.0573Y-2.2047
X8.0573Y-4.8031
T3
G00X5.4616Y-2.4641
M15
G01X5.4616Y-2.3775
M16
G05
G00X5.6939Y-2.287
M15
G01X5.6073Y-2.287
M16
G05
G00X5.7018Y-2.535
M15
G01X5.5994Y-2.535
M16
G05
M30
