%TF.GenerationSoftware,KiCad,Pcbnew,10.0.1*%
%TF.CreationDate,2026-06-07T22:21:57-03:00*%
%TF.ProjectId,Proyecto0.1V,50726f79-6563-4746-9f30-2e31562e6b69,rev?*%
%TF.SameCoordinates,Original*%
%TF.FileFunction,Paste,Top*%
%TF.FilePolarity,Positive*%
%FSLAX46Y46*%
G04 Gerber Fmt 4.6, Leading zero omitted, Abs format (unit mm)*
G04 Created by KiCad (PCBNEW 10.0.1) date 2026-06-07 22:21:57*
%MOMM*%
%LPD*%
G01*
G04 APERTURE LIST*
G04 Aperture macros list*
%AMRoundRect*
0 Rectangle with rounded corners*
0 $1 Rounding radius*
0 $2 $3 $4 $5 $6 $7 $8 $9 X,Y pos of 4 corners*
0 Add a 4 corners polygon primitive as box body*
4,1,4,$2,$3,$4,$5,$6,$7,$8,$9,$2,$3,0*
0 Add four circle primitives for the rounded corners*
1,1,$1+$1,$2,$3*
1,1,$1+$1,$4,$5*
1,1,$1+$1,$6,$7*
1,1,$1+$1,$8,$9*
0 Add four rect primitives between the rounded corners*
20,1,$1+$1,$2,$3,$4,$5,0*
20,1,$1+$1,$4,$5,$6,$7,0*
20,1,$1+$1,$6,$7,$8,$9,0*
20,1,$1+$1,$8,$9,$2,$3,0*%
G04 Aperture macros list end*
%ADD10RoundRect,0.250000X-0.262500X-0.450000X0.262500X-0.450000X0.262500X0.450000X-0.262500X0.450000X0*%
%ADD11RoundRect,0.150000X-0.587500X-0.150000X0.587500X-0.150000X0.587500X0.150000X-0.587500X0.150000X0*%
%ADD12RoundRect,0.250000X0.262500X0.450000X-0.262500X0.450000X-0.262500X-0.450000X0.262500X-0.450000X0*%
%ADD13RoundRect,0.250000X-0.450000X0.262500X-0.450000X-0.262500X0.450000X-0.262500X0.450000X0.262500X0*%
%ADD14RoundRect,0.250000X0.250000X0.475000X-0.250000X0.475000X-0.250000X-0.475000X0.250000X-0.475000X0*%
%ADD15RoundRect,0.150000X0.587500X0.150000X-0.587500X0.150000X-0.587500X-0.150000X0.587500X-0.150000X0*%
%ADD16RoundRect,0.090000X0.660000X0.360000X-0.660000X0.360000X-0.660000X-0.360000X0.660000X-0.360000X0*%
%ADD17RoundRect,0.243750X-0.243750X-0.456250X0.243750X-0.456250X0.243750X0.456250X-0.243750X0.456250X0*%
%ADD18RoundRect,0.075000X-0.650000X-0.075000X0.650000X-0.075000X0.650000X0.075000X-0.650000X0.075000X0*%
%ADD19RoundRect,0.250000X-1.500000X-0.650000X1.500000X-0.650000X1.500000X0.650000X-1.500000X0.650000X0*%
%ADD20RoundRect,0.250000X-0.325000X-0.650000X0.325000X-0.650000X0.325000X0.650000X-0.325000X0.650000X0*%
%ADD21R,3.800000X2.200000*%
%ADD22R,2.200000X3.800000*%
%ADD23RoundRect,0.250000X-0.475000X0.250000X-0.475000X-0.250000X0.475000X-0.250000X0.475000X0.250000X0*%
%ADD24RoundRect,0.250000X2.375000X-2.025000X2.375000X2.025000X-2.375000X2.025000X-2.375000X-2.025000X0*%
%ADD25RoundRect,0.250000X0.300000X-2.050000X0.300000X2.050000X-0.300000X2.050000X-0.300000X-2.050000X0*%
%ADD26RoundRect,0.500000X-0.500000X0.500000X-0.500000X-0.500000X0.500000X-0.500000X0.500000X0.500000X0*%
%ADD27RoundRect,0.250000X-1.100000X0.325000X-1.100000X-0.325000X1.100000X-0.325000X1.100000X0.325000X0*%
%ADD28RoundRect,0.250000X0.325000X0.650000X-0.325000X0.650000X-0.325000X-0.650000X0.325000X-0.650000X0*%
%ADD29RoundRect,0.250000X-0.250000X-0.475000X0.250000X-0.475000X0.250000X0.475000X-0.250000X0.475000X0*%
%ADD30RoundRect,0.150000X0.512500X0.150000X-0.512500X0.150000X-0.512500X-0.150000X0.512500X-0.150000X0*%
%ADD31RoundRect,0.250000X0.475000X-0.250000X0.475000X0.250000X-0.475000X0.250000X-0.475000X-0.250000X0*%
%ADD32RoundRect,0.250000X0.362500X1.425000X-0.362500X1.425000X-0.362500X-1.425000X0.362500X-1.425000X0*%
%ADD33RoundRect,0.243750X0.456250X-0.243750X0.456250X0.243750X-0.456250X0.243750X-0.456250X-0.243750X0*%
%ADD34RoundRect,0.150000X-0.512500X-0.150000X0.512500X-0.150000X0.512500X0.150000X-0.512500X0.150000X0*%
%ADD35RoundRect,0.250000X1.500000X0.650000X-1.500000X0.650000X-1.500000X-0.650000X1.500000X-0.650000X0*%
%ADD36RoundRect,0.250000X-0.405000X-0.405000X0.405000X-0.405000X0.405000X0.405000X-0.405000X0.405000X0*%
%ADD37RoundRect,0.075000X-0.337500X-0.075000X0.337500X-0.075000X0.337500X0.075000X-0.337500X0.075000X0*%
%ADD38RoundRect,0.075000X-0.075000X-0.337500X0.075000X-0.337500X0.075000X0.337500X-0.075000X0.337500X0*%
%ADD39RoundRect,0.250000X0.650000X-0.325000X0.650000X0.325000X-0.650000X0.325000X-0.650000X-0.325000X0*%
%ADD40RoundRect,0.150000X-0.150000X0.512500X-0.150000X-0.512500X0.150000X-0.512500X0.150000X0.512500X0*%
%ADD41RoundRect,0.250000X0.650000X-1.000000X0.650000X1.000000X-0.650000X1.000000X-0.650000X-1.000000X0*%
%ADD42RoundRect,0.162500X-0.650000X-0.162500X0.650000X-0.162500X0.650000X0.162500X-0.650000X0.162500X0*%
%ADD43R,1.200000X3.300000*%
%ADD44RoundRect,0.250000X1.100000X-0.325000X1.100000X0.325000X-1.100000X0.325000X-1.100000X-0.325000X0*%
G04 APERTURE END LIST*
D10*
%TO.C,R18*%
X75732500Y-116030000D03*
X77557500Y-116030000D03*
%TD*%
D11*
%TO.C,D10*%
X103012500Y-53358000D03*
X103012500Y-55258000D03*
X104887500Y-54308000D03*
%TD*%
D12*
%TO.C,R24*%
X62952500Y-102060000D03*
X61127500Y-102060000D03*
%TD*%
D13*
%TO.C,R40*%
X111570000Y-56697500D03*
X111570000Y-58522500D03*
%TD*%
D14*
%TO.C,C5*%
X71880000Y-118570000D03*
X69980000Y-118570000D03*
%TD*%
D15*
%TO.C,D3*%
X118222500Y-89040000D03*
X118222500Y-87140000D03*
X116347500Y-88090000D03*
%TD*%
D16*
%TO.C,D22*%
X107860000Y-108330000D03*
X107860000Y-105030000D03*
X102960000Y-105030000D03*
X102960000Y-108330000D03*
%TD*%
D14*
%TO.C,C10*%
X77595000Y-118570000D03*
X75695000Y-118570000D03*
%TD*%
D10*
%TO.C,R20*%
X124032500Y-116030000D03*
X125857500Y-116030000D03*
%TD*%
D12*
%TO.C,R23*%
X130937500Y-116030000D03*
X129112500Y-116030000D03*
%TD*%
D17*
%TO.C,D6*%
X61102500Y-99520000D03*
X62977500Y-99520000D03*
%TD*%
D18*
%TO.C,U2*%
X61160000Y-118840000D03*
X61160000Y-119340000D03*
X61160000Y-119840000D03*
X61160000Y-120340000D03*
X61160000Y-120840000D03*
X65460000Y-120840000D03*
X65460000Y-120340000D03*
X65460000Y-119840000D03*
X65460000Y-119340000D03*
X65460000Y-118840000D03*
%TD*%
D19*
%TO.C,D5*%
X124985000Y-119840000D03*
X129985000Y-119840000D03*
%TD*%
D12*
%TO.C,R10*%
X71842500Y-116030000D03*
X70017500Y-116030000D03*
%TD*%
D10*
%TO.C,R22*%
X61127500Y-81740000D03*
X62952500Y-81740000D03*
%TD*%
%TO.C,R17*%
X116372500Y-76660000D03*
X118197500Y-76660000D03*
%TD*%
D20*
%TO.C,C40*%
X52945000Y-114760000D03*
X55895000Y-114760000D03*
%TD*%
D21*
%TO.C,A1*%
X73940000Y-53800000D03*
X73940000Y-56340000D03*
X73940000Y-58880000D03*
X73940000Y-61420000D03*
X73940000Y-63960000D03*
X73940000Y-66500000D03*
X73940000Y-69040000D03*
X73940000Y-71580000D03*
X73940000Y-74120000D03*
X73940000Y-76660000D03*
X73940000Y-79200000D03*
X73940000Y-81740000D03*
X73940000Y-84280000D03*
X73940000Y-86820000D03*
X73940000Y-89360000D03*
X73940000Y-91900000D03*
X73940000Y-94440000D03*
X73940000Y-96980000D03*
X73940000Y-99520000D03*
X73940000Y-102060000D03*
D22*
X81090000Y-102630000D03*
X83630000Y-102630000D03*
X86170000Y-102630000D03*
D21*
X93320000Y-53800000D03*
X93320000Y-56340000D03*
X93320000Y-58880000D03*
X93320000Y-61420000D03*
X93320000Y-63960000D03*
X93320000Y-66500000D03*
X93320000Y-69040000D03*
X93320000Y-71580000D03*
X93320000Y-74120000D03*
X93320000Y-76660000D03*
X93320000Y-79200000D03*
X93320000Y-81740000D03*
X93320000Y-84280000D03*
X93320000Y-86820000D03*
X93320000Y-89360000D03*
X93320000Y-91900000D03*
X93320000Y-94440000D03*
X93320000Y-96980000D03*
X93320000Y-99520000D03*
X93320000Y-102060000D03*
%TD*%
D23*
%TO.C,C27*%
X114745000Y-56660000D03*
X114745000Y-58560000D03*
%TD*%
D24*
%TO.C,D4*%
X187725000Y-114590000D03*
X193275000Y-114590000D03*
X187725000Y-109740000D03*
X193275000Y-109740000D03*
D25*
X187960000Y-121315000D03*
X193040000Y-121315000D03*
%TD*%
D20*
%TO.C,C25*%
X60565000Y-107394000D03*
X63515000Y-107394000D03*
%TD*%
D10*
%TO.C,R53*%
X132247500Y-65786000D03*
X134072500Y-65786000D03*
%TD*%
D26*
%TO.C,SW2*%
X47038000Y-51816000D03*
X47038000Y-57816000D03*
%TD*%
D20*
%TO.C,C32*%
X149655000Y-93980000D03*
X152605000Y-93980000D03*
%TD*%
D10*
%TO.C,R15*%
X116372500Y-84280000D03*
X118197500Y-84280000D03*
%TD*%
D20*
%TO.C,C42*%
X81520000Y-123650000D03*
X84470000Y-123650000D03*
%TD*%
D10*
%TO.C,R1*%
X92877500Y-119840000D03*
X94702500Y-119840000D03*
%TD*%
D27*
%TO.C,C23*%
X122365000Y-56135000D03*
X122365000Y-59085000D03*
%TD*%
D28*
%TO.C,C44*%
X67325000Y-124920000D03*
X64375000Y-124920000D03*
%TD*%
D11*
%TO.C,D2*%
X123967500Y-87140000D03*
X123967500Y-89040000D03*
X125842500Y-88090000D03*
%TD*%
D13*
%TO.C,R57*%
X196215000Y-78462500D03*
X196215000Y-80287500D03*
%TD*%
D29*
%TO.C,C3*%
X47120000Y-121110000D03*
X49020000Y-121110000D03*
%TD*%
D20*
%TO.C,C37*%
X102475000Y-114760000D03*
X105425000Y-114760000D03*
%TD*%
D30*
%TO.C,U3*%
X84132500Y-119520000D03*
X84132500Y-118570000D03*
X84132500Y-117620000D03*
X81857500Y-117620000D03*
X81857500Y-119520000D03*
%TD*%
D12*
%TO.C,R47*%
X134072500Y-60706000D03*
X132247500Y-60706000D03*
%TD*%
D31*
%TO.C,C19*%
X118555000Y-64910000D03*
X118555000Y-63010000D03*
%TD*%
D32*
%TO.C,R29*%
X148377500Y-117475000D03*
X142452500Y-117475000D03*
%TD*%
D12*
%TO.C,R8*%
X104862500Y-119840000D03*
X103037500Y-119840000D03*
%TD*%
%TO.C,R42*%
X62952500Y-71580000D03*
X61127500Y-71580000D03*
%TD*%
%TO.C,R31*%
X129912500Y-100536000D03*
X128087500Y-100536000D03*
%TD*%
D10*
%TO.C,R19*%
X75732500Y-121110000D03*
X77557500Y-121110000D03*
%TD*%
D29*
%TO.C,C9*%
X116335000Y-81740000D03*
X118235000Y-81740000D03*
%TD*%
D33*
%TO.C,D11*%
X109030000Y-62992500D03*
X109030000Y-61117500D03*
%TD*%
D14*
%TO.C,C43*%
X77595000Y-123650000D03*
X75695000Y-123650000D03*
%TD*%
D12*
%TO.C,R49*%
X62952500Y-91900000D03*
X61127500Y-91900000D03*
%TD*%
D20*
%TO.C,C39*%
X149655000Y-101600000D03*
X152605000Y-101600000D03*
%TD*%
D31*
%TO.C,C21*%
X110490000Y-107630000D03*
X110490000Y-105730000D03*
%TD*%
D34*
%TO.C,U5*%
X97732500Y-118890000D03*
X97732500Y-119840000D03*
X97732500Y-120790000D03*
X100007500Y-120790000D03*
X100007500Y-118890000D03*
%TD*%
D13*
%TO.C,R56*%
X193675000Y-73382500D03*
X193675000Y-75207500D03*
%TD*%
D12*
%TO.C,R11*%
X71842500Y-121110000D03*
X70017500Y-121110000D03*
%TD*%
%TO.C,R50*%
X62952500Y-94440000D03*
X61127500Y-94440000D03*
%TD*%
D20*
%TO.C,C46*%
X149655000Y-104140000D03*
X152605000Y-104140000D03*
%TD*%
D10*
%TO.C,R32*%
X61127500Y-104600000D03*
X62952500Y-104600000D03*
%TD*%
%TO.C,R28*%
X61127500Y-56340000D03*
X62952500Y-56340000D03*
%TD*%
D12*
%TO.C,R33*%
X62952500Y-53800000D03*
X61127500Y-53800000D03*
%TD*%
D35*
%TO.C,D1*%
X129985000Y-123650000D03*
X124985000Y-123650000D03*
%TD*%
D31*
%TO.C,C18*%
X110490000Y-98534329D03*
X110490000Y-96634329D03*
%TD*%
D13*
%TO.C,R39*%
X193675000Y-78462500D03*
X193675000Y-80287500D03*
%TD*%
D33*
%TO.C,D12*%
X111570000Y-62992500D03*
X111570000Y-61117500D03*
%TD*%
D31*
%TO.C,C20*%
X121920000Y-107630000D03*
X121920000Y-105730000D03*
%TD*%
%TO.C,C28*%
X132080000Y-57338000D03*
X132080000Y-55438000D03*
%TD*%
D29*
%TO.C,C45*%
X69980000Y-123650000D03*
X71880000Y-123650000D03*
%TD*%
D11*
%TO.C,Q1*%
X128062500Y-93236000D03*
X128062500Y-95136000D03*
X129937500Y-94186000D03*
%TD*%
D12*
%TO.C,R2*%
X48982500Y-118570000D03*
X47157500Y-118570000D03*
%TD*%
D10*
%TO.C,R21*%
X61127500Y-79200000D03*
X62952500Y-79200000D03*
%TD*%
D11*
%TO.C,D9*%
X118292500Y-115715000D03*
X118292500Y-117615000D03*
X120167500Y-116665000D03*
%TD*%
D16*
%TO.C,D20*%
X119290000Y-99440000D03*
X119290000Y-96140000D03*
X114390000Y-96140000D03*
X114390000Y-99440000D03*
%TD*%
D36*
%TO.C,U1*%
X53610000Y-119030000D03*
X53610000Y-120650000D03*
X55230000Y-119030000D03*
X55230000Y-120650000D03*
D37*
X51982500Y-118540000D03*
X51982500Y-119190000D03*
X51982500Y-119840000D03*
X51982500Y-120490000D03*
X51982500Y-121140000D03*
D38*
X53120000Y-122277500D03*
X53770000Y-122277500D03*
X54420000Y-122277500D03*
X55070000Y-122277500D03*
X55720000Y-122277500D03*
D37*
X56857500Y-121140000D03*
X56857500Y-120490000D03*
X56857500Y-119840000D03*
X56857500Y-119190000D03*
X56857500Y-118540000D03*
D38*
X55720000Y-117402500D03*
X55070000Y-117402500D03*
X54420000Y-117402500D03*
X53770000Y-117402500D03*
X53120000Y-117402500D03*
%TD*%
D39*
%TO.C,C16*%
X162560000Y-119585000D03*
X162560000Y-116635000D03*
%TD*%
D14*
%TO.C,C41*%
X49020000Y-116030000D03*
X47120000Y-116030000D03*
%TD*%
D10*
%TO.C,R5*%
X92877500Y-114760000D03*
X94702500Y-114760000D03*
%TD*%
D32*
%TO.C,R27*%
X159807500Y-117475000D03*
X153882500Y-117475000D03*
%TD*%
D10*
%TO.C,R30*%
X116372500Y-79200000D03*
X118197500Y-79200000D03*
%TD*%
D20*
%TO.C,C36*%
X149690000Y-99060000D03*
X152640000Y-99060000D03*
%TD*%
D12*
%TO.C,R51*%
X62952500Y-96980000D03*
X61127500Y-96980000D03*
%TD*%
D29*
%TO.C,C33*%
X103000000Y-117300000D03*
X104900000Y-117300000D03*
%TD*%
D16*
%TO.C,D21*%
X119200000Y-108330000D03*
X119200000Y-105030000D03*
X114300000Y-105030000D03*
X114300000Y-108330000D03*
%TD*%
D20*
%TO.C,C26*%
X149655000Y-91440000D03*
X152605000Y-91440000D03*
%TD*%
D10*
%TO.C,R16*%
X116372500Y-74120000D03*
X118197500Y-74120000D03*
%TD*%
D40*
%TO.C,U10*%
X57910000Y-92032500D03*
X56960000Y-92032500D03*
X56010000Y-92032500D03*
X56010000Y-94307500D03*
X56960000Y-94307500D03*
X57910000Y-94307500D03*
%TD*%
D13*
%TO.C,R58*%
X196215000Y-73382500D03*
X196215000Y-75207500D03*
%TD*%
D12*
%TO.C,R41*%
X62952500Y-69040000D03*
X61127500Y-69040000D03*
%TD*%
%TO.C,R36*%
X62952500Y-66500000D03*
X61127500Y-66500000D03*
%TD*%
D20*
%TO.C,C38*%
X111405000Y-114760000D03*
X114355000Y-114760000D03*
%TD*%
D12*
%TO.C,R45*%
X62952500Y-84280000D03*
X61127500Y-84280000D03*
%TD*%
D28*
%TO.C,C6*%
X67325000Y-114760000D03*
X64375000Y-114760000D03*
%TD*%
D29*
%TO.C,C30*%
X97920000Y-124920000D03*
X99820000Y-124920000D03*
%TD*%
D31*
%TO.C,C13*%
X121762000Y-98946000D03*
X121762000Y-97046000D03*
%TD*%
D11*
%TO.C,D13*%
X103012500Y-58438000D03*
X103012500Y-60338000D03*
X104887500Y-59388000D03*
%TD*%
D12*
%TO.C,R46*%
X62952500Y-86820000D03*
X61127500Y-86820000D03*
%TD*%
%TO.C,R44*%
X62952500Y-76660000D03*
X61127500Y-76660000D03*
%TD*%
%TO.C,R14*%
X125817500Y-79200000D03*
X123992500Y-79200000D03*
%TD*%
D32*
%TO.C,R25*%
X205527500Y-86360000D03*
X199602500Y-86360000D03*
%TD*%
D12*
%TO.C,R7*%
X125817500Y-84280000D03*
X123992500Y-84280000D03*
%TD*%
D13*
%TO.C,R38*%
X191135000Y-78462500D03*
X191135000Y-80287500D03*
%TD*%
D12*
%TO.C,R13*%
X125817500Y-74120000D03*
X123992500Y-74120000D03*
%TD*%
D10*
%TO.C,R52*%
X132247500Y-63246000D03*
X134072500Y-63246000D03*
%TD*%
D12*
%TO.C,R48*%
X62952500Y-89360000D03*
X61127500Y-89360000D03*
%TD*%
D24*
%TO.C,D16*%
X187725000Y-59980000D03*
X193275000Y-59980000D03*
X187725000Y-55130000D03*
X193275000Y-55130000D03*
D25*
X187960000Y-66705000D03*
X193040000Y-66705000D03*
%TD*%
D10*
%TO.C,R26*%
X61127500Y-61420000D03*
X62952500Y-61420000D03*
%TD*%
D12*
%TO.C,R37*%
X129912500Y-97996000D03*
X128087500Y-97996000D03*
%TD*%
D41*
%TO.C,D18*%
X135255000Y-57626000D03*
X135255000Y-53626000D03*
%TD*%
D20*
%TO.C,C35*%
X149655000Y-96520000D03*
X152605000Y-96520000D03*
%TD*%
D40*
%TO.C,U7*%
X57910000Y-71712500D03*
X56960000Y-71712500D03*
X56010000Y-71712500D03*
X56010000Y-73987500D03*
X56960000Y-73987500D03*
X57910000Y-73987500D03*
%TD*%
D16*
%TO.C,D19*%
X107860000Y-99439812D03*
X107860000Y-96139812D03*
X102960000Y-96139812D03*
X102960000Y-99439812D03*
%TD*%
D10*
%TO.C,R6*%
X92877500Y-117300000D03*
X94702500Y-117300000D03*
%TD*%
D12*
%TO.C,R4*%
X104862500Y-124920000D03*
X103037500Y-124920000D03*
%TD*%
%TO.C,R3*%
X94702500Y-124920000D03*
X92877500Y-124920000D03*
%TD*%
D42*
%TO.C,U4*%
X112467500Y-121745000D03*
X112467500Y-123015000D03*
X112467500Y-124285000D03*
X112467500Y-125555000D03*
X119642500Y-125555000D03*
X119642500Y-124285000D03*
X119642500Y-123015000D03*
X119642500Y-121745000D03*
%TD*%
D14*
%TO.C,C29*%
X94740000Y-122380000D03*
X92840000Y-122380000D03*
%TD*%
D13*
%TO.C,R54*%
X109030000Y-56697500D03*
X109030000Y-58522500D03*
%TD*%
D43*
%TO.C,L3*%
X129249000Y-56340000D03*
X126149000Y-56340000D03*
%TD*%
D27*
%TO.C,C24*%
X118555000Y-56135000D03*
X118555000Y-59085000D03*
%TD*%
D26*
%TO.C,SW1*%
X54801000Y-51816000D03*
X54801000Y-57816000D03*
%TD*%
D19*
%TO.C,D17*%
X181650000Y-80645000D03*
X186650000Y-80645000D03*
%TD*%
D44*
%TO.C,C22*%
X122365000Y-65435000D03*
X122365000Y-62485000D03*
%TD*%
D40*
%TO.C,U9*%
X57910000Y-81872500D03*
X56960000Y-81872500D03*
X56010000Y-81872500D03*
X56010000Y-84147500D03*
X56960000Y-84147500D03*
X57910000Y-84147500D03*
%TD*%
D29*
%TO.C,C34*%
X111930000Y-118570000D03*
X113830000Y-118570000D03*
%TD*%
D12*
%TO.C,R34*%
X62952500Y-58880000D03*
X61127500Y-58880000D03*
%TD*%
D34*
%TO.C,U8*%
X126307500Y-60470000D03*
X126307500Y-61420000D03*
X126307500Y-62370000D03*
X128582500Y-62370000D03*
X128582500Y-61420000D03*
X128582500Y-60470000D03*
%TD*%
D14*
%TO.C,C4*%
X125855000Y-81740000D03*
X123955000Y-81740000D03*
%TD*%
D13*
%TO.C,R55*%
X191135000Y-73382500D03*
X191135000Y-75207500D03*
%TD*%
D12*
%TO.C,R35*%
X62952500Y-63960000D03*
X61127500Y-63960000D03*
%TD*%
D40*
%TO.C,U6*%
X57910000Y-61552500D03*
X56960000Y-61552500D03*
X56010000Y-61552500D03*
X56010000Y-63827500D03*
X56960000Y-63827500D03*
X57910000Y-63827500D03*
%TD*%
D12*
%TO.C,R12*%
X125817500Y-76660000D03*
X123992500Y-76660000D03*
%TD*%
D29*
%TO.C,C31*%
X97920000Y-114760000D03*
X99820000Y-114760000D03*
%TD*%
D12*
%TO.C,R43*%
X62952500Y-74120000D03*
X61127500Y-74120000D03*
%TD*%
M02*
