%TF.GenerationSoftware,KiCad,Pcbnew,10.0.1*%
%TF.CreationDate,2026-06-07T22:21:57-03:00*%
%TF.ProjectId,Proyecto0.1V,50726f79-6563-4746-9f30-2e31562e6b69,rev?*%
%TF.SameCoordinates,Original*%
%TF.FileFunction,Soldermask,Bot*%
%TF.FilePolarity,Negative*%
%FSLAX46Y46*%
G04 Gerber Fmt 4.6, Leading zero omitted, Abs format (unit mm)*
G04 Created by KiCad (PCBNEW 10.0.1) date 2026-06-07 22:21:57*
%MOMM*%
%LPD*%
G01*
G04 APERTURE LIST*
G04 Aperture macros list*
%AMRoundRect*
0 Rectangle with rounded corners*
0 $1 Rounding radius*
0 $2 $3 $4 $5 $6 $7 $8 $9 X,Y pos of 4 corners*
0 Add a 4 corners polygon primitive as box body*
4,1,4,$2,$3,$4,$5,$6,$7,$8,$9,$2,$3,0*
0 Add four circle primitives for the rounded corners*
1,1,$1+$1,$2,$3*
1,1,$1+$1,$4,$5*
1,1,$1+$1,$6,$7*
1,1,$1+$1,$8,$9*
0 Add four rect primitives between the rounded corners*
20,1,$1+$1,$2,$3,$4,$5,0*
20,1,$1+$1,$4,$5,$6,$7,0*
20,1,$1+$1,$6,$7,$8,$9,0*
20,1,$1+$1,$8,$9,$2,$3,0*%
G04 Aperture macros list end*
%ADD10RoundRect,0.250000X-1.050000X1.050000X-1.050000X-1.050000X1.050000X-1.050000X1.050000X1.050000X0*%
%ADD11C,2.600000*%
%ADD12R,1.700000X1.700000*%
%ADD13C,1.700000*%
%ADD14C,2.200000*%
%ADD15C,1.850000*%
%ADD16R,1.905000X2.000000*%
%ADD17O,1.905000X2.000000*%
%ADD18C,3.600000*%
%ADD19C,6.400000*%
%ADD20RoundRect,0.250000X0.550000X0.550000X-0.550000X0.550000X-0.550000X-0.550000X0.550000X-0.550000X0*%
%ADD21C,1.600000*%
%ADD22R,4.600000X2.000000*%
%ADD23O,4.200000X2.000000*%
%ADD24O,2.000000X4.200000*%
%ADD25RoundRect,0.250000X1.050000X-1.050000X1.050000X1.050000X-1.050000X1.050000X-1.050000X-1.050000X0*%
%ADD26R,2.500000X2.500000*%
%ADD27O,2.500000X2.500000*%
%ADD28C,2.400000*%
%ADD29RoundRect,0.250001X-0.949999X0.949999X-0.949999X-0.949999X0.949999X-0.949999X0.949999X0.949999X0*%
G04 APERTURE END LIST*
D10*
%TO.C,J4*%
X202565000Y-63500000D03*
D11*
X202565000Y-68580000D03*
X202565000Y-73660000D03*
X202565000Y-78740000D03*
%TD*%
D12*
%TO.C,JP13*%
X109665000Y-83645000D03*
D13*
X107125000Y-83645000D03*
%TD*%
D12*
%TO.C,J11*%
X110540800Y-66497200D03*
D13*
X110540800Y-69037200D03*
%TD*%
D12*
%TO.C,JP1*%
X56960000Y-126190000D03*
D13*
X54420000Y-126190000D03*
X51880000Y-126190000D03*
%TD*%
D14*
%TO.C,A1*%
X80905000Y-53930000D03*
D15*
X81205000Y-56960000D03*
X86055000Y-56960000D03*
D14*
X86355000Y-53930000D03*
%TD*%
D12*
%TO.C,J12*%
X136960000Y-69040000D03*
D13*
X139500000Y-69040000D03*
%TD*%
D16*
%TO.C,Q3*%
X148590000Y-123190000D03*
D17*
X146050000Y-123190000D03*
X143510000Y-123190000D03*
%TD*%
D12*
%TO.C,JP10*%
X109665000Y-76025000D03*
D13*
X107125000Y-76025000D03*
%TD*%
D12*
%TO.C,J8*%
X49340000Y-76660000D03*
D13*
X49340000Y-79200000D03*
X49340000Y-81740000D03*
X49340000Y-84280000D03*
%TD*%
D12*
%TO.C,JP9*%
X132525000Y-76025000D03*
D13*
X135065000Y-76025000D03*
%TD*%
D12*
%TO.C,J6*%
X49340000Y-89995000D03*
D13*
X49340000Y-92535000D03*
X49340000Y-95075000D03*
X49340000Y-97615000D03*
X49340000Y-100155000D03*
X49340000Y-102695000D03*
%TD*%
D16*
%TO.C,Q2*%
X160655000Y-123190000D03*
D17*
X158115000Y-123190000D03*
X155575000Y-123190000D03*
%TD*%
D10*
%TO.C,J3*%
X202565000Y-99060000D03*
D11*
X202565000Y-104140000D03*
X202565000Y-109220000D03*
X202565000Y-114300000D03*
%TD*%
D18*
%TO.C,L2*%
X166116000Y-67945000D03*
X166116000Y-54445000D03*
%TD*%
D19*
%TO.C,H2*%
X204655000Y-122000000D03*
%TD*%
D12*
%TO.C,J13*%
X137720000Y-115540000D03*
D13*
X137720000Y-113000000D03*
%TD*%
D20*
%TO.C,C15*%
X185420000Y-73660000D03*
D21*
X182920000Y-73660000D03*
%TD*%
D12*
%TO.C,JP8*%
X109665000Y-79835000D03*
D13*
X107125000Y-79835000D03*
%TD*%
D19*
%TO.C,H4*%
X39000000Y-57000000D03*
%TD*%
D22*
%TO.C,J9*%
X143525000Y-64389000D03*
D23*
X143525000Y-58089000D03*
D24*
X138725000Y-61489000D03*
%TD*%
D12*
%TO.C,J5*%
X49340000Y-63960000D03*
D13*
X49340000Y-66500000D03*
X49340000Y-69040000D03*
X49340000Y-71580000D03*
%TD*%
D25*
%TO.C,J2*%
X37910000Y-113490000D03*
D11*
X37910000Y-108410000D03*
X37910000Y-103330000D03*
%TD*%
D12*
%TO.C,JP12*%
X103950000Y-63960000D03*
D13*
X103950000Y-66500000D03*
X103950000Y-69040000D03*
%TD*%
D12*
%TO.C,JP17*%
X118364000Y-69040000D03*
D13*
X115824000Y-69040000D03*
%TD*%
D26*
%TO.C,K1*%
X187960000Y-85725000D03*
D27*
X181960000Y-87725000D03*
X181960000Y-99925000D03*
X193960000Y-99925000D03*
X193960000Y-87725000D03*
%TD*%
D12*
%TO.C,J1*%
X81090000Y-107775000D03*
D13*
X83630000Y-107775000D03*
X86170000Y-107775000D03*
%TD*%
D19*
%TO.C,H1*%
X204655000Y-56000000D03*
%TD*%
%TO.C,H3*%
X39000000Y-123000000D03*
%TD*%
D12*
%TO.C,JP16*%
X124460000Y-69040000D03*
D13*
X127000000Y-69040000D03*
%TD*%
D28*
%TO.C,C14*%
X151130000Y-109855000D03*
X151130000Y-82355000D03*
%TD*%
D12*
%TO.C,JP6*%
X132525000Y-79835000D03*
D13*
X135065000Y-79835000D03*
%TD*%
D12*
%TO.C,J7*%
X37910000Y-67770000D03*
D13*
X37910000Y-70310000D03*
X37910000Y-72850000D03*
X37910000Y-75390000D03*
X37910000Y-77930000D03*
X37910000Y-80470000D03*
X37910000Y-83010000D03*
X37910000Y-85550000D03*
X37910000Y-88090000D03*
X37910000Y-90630000D03*
X37910000Y-93170000D03*
X37910000Y-95710000D03*
%TD*%
D12*
%TO.C,JP7*%
X132525000Y-83645000D03*
D13*
X135065000Y-83645000D03*
%TD*%
D12*
%TO.C,J14*%
X202565000Y-92710000D03*
D13*
X200025000Y-92710000D03*
%TD*%
D18*
%TO.C,L1*%
X176530000Y-88900000D03*
X163030000Y-88900000D03*
%TD*%
D29*
%TO.C,C17*%
X173990000Y-112395000D03*
D28*
X173990000Y-119895000D03*
%TD*%
M02*
